ffmpeg version 3.4.8-0ubuntu0.2 Copyright (c) 2000-2020 the FFmpeg developers
  built with gcc 7 (Ubuntu 7.5.0-3ubuntu1~18.04)
  configuration: --prefix=/usr --extra-version=0ubuntu0.2 --toolchain=hardened --libdir=/usr/lib/x86_64-linux-gnu --incdir=/usr/include/x86_64-linux-gnu --enable-gpl --disable-stripping --enable-avresample --enable-avisynth --enable-gnutls --enable-ladspa --enable-libass --enable-libbluray --enable-libbs2b --enable-libcaca --enable-libcdio --enable-libflite --enable-libfontconfig --enable-libfreetype --enable-libfribidi --enable-libgme --enable-libgsm --enable-libmp3lame --enable-libmysofa --enable-libopenjpeg --enable-libopenmpt --enable-libopus --enable-libpulse --enable-librubberband --enable-librsvg --enable-libshine --enable-libsnappy --enable-libsoxr --enable-libspeex --enable-libssh --enable-libtheora --enable-libtwolame --enable-libvorbis --enable-libvpx --enable-libwavpack --enable-libwebp --enable-libx265 --enable-libxml2 --enable-libxvid --enable-libzmq --enable-libzvbi --enable-omx --enable-openal --enable-opengl --enable-sdl2 --enable-libdc1394 --enable-libdrm --enable-libiec61883 --enable-chromaprint --enable-frei0r --enable-libopencv --enable-libx264 --enable-shared
  libavutil      55. 78.100 / 55. 78.100
  libavcodec     57.107.100 / 57.107.100
  libavformat    57. 83.100 / 57. 83.100
  libavdevice    57. 10.100 / 57. 10.100
  libavfilter     6.107.100 /  6.107.100
  libavresample   3.  7.  0 /  3.  7.  0
  libswscale      4.  8.100 /  4.  8.100
  libswresample   2.  9.100 /  2.  9.100
  libpostproc    54.  7.100 / 54.  7.100
[rawvideo @ 0x561bacfe7a20] Estimating duration from bitrate, this may be inaccurate
Input #0, rawvideo, from '../../SVC-Encoder-20220109T061506Z-001/SVC-Encoder/Dataset/RollerCoaster/ERP_8x8/tile_yuv/Tile_23_480x240.yuv':
  Duration: 00:00:10.00, start: 0.000000, bitrate: 41472 kb/s
    Stream #0:0: Video: rawvideo (I420 / 0x30323449), yuv420p, 480x240, 41472 kb/s, 30 tbr, 30 tbn, 30 tbc
Stream mapping:
  Stream #0:0 -> #0:0 (rawvideo (native) -> h264 (libx264))
Press [q] to stop, [?] for help
[libx264 @ 0x561bacff4c60] using cpu capabilities: MMX2 SSE2Fast LZCNT SSSE3 SSE4.2 AVX
[libx264 @ 0x561bacff4c60] profile High, level 2.1
Output #0, rawvideo, to 'RollerCoaster_Tile_23_480x240_x264_QP_24.h264':
  Metadata:
    encoder         : Lavf57.83.100
    Stream #0:0: Video: h264 (libx264), yuv420p, 480x240, q=-1--1, 30 fps, 30 tbn, 30 tbc
    Metadata:
      encoder         : Lavc57.107.100 libx264
    Side data:
      cpb: bitrate max/min/avg: 0/0/0 buffer size: 0 vbv_delay: -1
frame=  202 fps=0.0 q=30.0 PSNR=Y:nan U:nan V:nan *:nan size=      58kB time=00:00:05.30 bitrate=  88.9kbits/s speed=10.6x    frame=  300 fps=0.0 q=30.0 LPSNR=Y:inf U:inf V:inf *:inf size=     104kB time=00:00:09.93 bitrate=  85.7kbits/s speed=12.4x    
video:104kB audio:0kB subtitle:0kB other streams:0kB global headers:0kB muxing overhead: 0.000000%
[libx264 @ 0x561bacff4c60] frame I:2     Avg QP:22.55  size:  7482  PSNR Mean Y:47.14 U:51.02 V:54.16 Avg:48.28 Global:48.28
[libx264 @ 0x561bacff4c60] frame P:78    Avg QP:23.63  size:   775  PSNR Mean Y:45.11 U:50.50 V:53.29 Avg:46.42 Global:46.39
[libx264 @ 0x561bacff4c60] frame B:220   Avg QP:29.46  size:   141  PSNR Mean Y:44.93 U:50.34 V:53.20 Avg:46.24 Global:46.22
[libx264 @ 0x561bacff4c60] consecutive B-frames:  1.0%  2.7%  3.0% 93.3%
[libx264 @ 0x561bacff4c60] mb I  I16..4: 35.4% 54.0% 10.6%
[libx264 @ 0x561bacff4c60] mb P  I16..4:  1.0%  0.3%  0.0%  P16..4: 36.2%  8.4%  1.8%  0.0%  0.0%    skip:52.3%
[libx264 @ 0x561bacff4c60] mb B  I16..4:  0.0%  0.0%  0.0%  B16..8: 26.5%  0.5%  0.0%  direct: 0.0%  skip:72.9%  L0:36.9% L1:62.8% BI: 0.2%
[libx264 @ 0x561bacff4c60] 8x8 transform intra:44.5% inter:75.7%
[libx264 @ 0x561bacff4c60] coded y,uvDC,uvAC intra: 38.1% 49.4% 7.2% inter: 3.3% 2.9% 0.0%
[libx264 @ 0x561bacff4c60] i16 v,h,dc,p: 33% 31% 24% 12%
[libx264 @ 0x561bacff4c60] i8 v,h,dc,ddl,ddr,vr,hd,vl,hu:  4% 30% 27%  4%  5%  2%  9%  4% 14%
[libx264 @ 0x561bacff4c60] i4 v,h,dc,ddl,ddr,vr,hd,vl,hu:  7% 28% 27%  4%  5%  2% 10%  2% 15%
[libx264 @ 0x561bacff4c60] i8c dc,h,v,p: 48% 40%  8%  5%
[libx264 @ 0x561bacff4c60] Weighted P-Frames: Y:0.0% UV:0.0%
[libx264 @ 0x561bacff4c60] ref P L0: 62.2% 15.9% 16.7%  5.2%
[libx264 @ 0x561bacff4c60] ref B L0: 78.6% 18.0%  3.4%
[libx264 @ 0x561bacff4c60] ref B L1: 81.8% 18.2%
[libx264 @ 0x561bacff4c60] PSNR Mean Y:44.990 U:50.389 V:53.228 Avg:46.297 Global:46.274 kb/s:85.09
